# xmcd
# Track frame offsets:
# 150
# 12740
# 28342
# 49700
# 72925
# 91113
# 109563
# 126695
# 146227
# 169254
#
# Disc length: 2577 seconds
# Revision: 0
# Processed by: cddbd v1.4PL0 Copyright (c) Steve Scherf et al.
# Submitted via: VisiTrax 2.9.5.181 - For more info visit www.synapsa.com
#
DISCID=940a0f0a
DTITLE=Mojo Stu - Not For Nothin'
DYEAR=1900
DGENRE=
TTITLE0=I'm Ready
TTITLE1=Camel Toe Boogie
TTITLE2=It's Late
TTITLE3=Waiting On A Heartbreak
TTITLE4=You're Gonna Miss Me
TTITLE5=Drive Me Crazy
TTITLE6=Not For Nothin'
TTITLE7=Blue Girl
TTITLE8=Hurts Me Too
TTITLE9=Never Give Up On Love
EXTD=
EXTT0=
EXTT1=
EXTT2=
EXTT3=
EXTT4=
EXTT5=
EXTT6=
EXTT7=
EXTT8=
EXTT9=
PLAYORDER=
